<?xml version="1.0" encoding="utf-8"?>
<svg xmlns="http://www.w3.org/2000/svg" viewBox="0 111.332 1119.016 574.668" preserveAspectRatio="none">
  <path id="journey" fill="none" stroke="#333" stroke-width="2" d="M 459.509 29.833 C 461.174 31.683 462.106 34.059 463.398 36.166 C 469.303 45.8 476.508 54.564 482.287 64.277 C 486.848 71.945 492.288 80.764 493.287 89.833 C 494.154 97.71 492.233 105.224 491.009 112.944 C 487.429 135.525 479.169 154.864 470.398 175.833 C 463.708 191.827 458.755 208.149 453.453 224.611 C 449.199 237.82 442.719 250.185 438.731 263.5 C 432.621 283.901 431.541 306.477 433.509 327.611 C 436.068 355.084 450.161 381.937 466.62 403.722 C 481.051 422.821 502.839 431.118 526.287 426.722 C 549.856 422.303 559.433 402.519 556.398 379.389 C 552.215 347.512 529.583 315.745 501.509 300.722 C 485.187 291.988 468.254 289.442 449.953 291.277 C 436.357 292.641 418.444 295.442 410.398 308.111 C 404.273 317.754 405.858 331.314 409.509 341.555 C 416.719 361.779 434.499 379.589 451.676 391.666 C 472.253 406.135 496.688 412.805 521.342 416.055 C 539.575 418.459 561.182 421.857 578.065 412.389 C 602.029 398.948 586.166 364.992 577.731 346.5 C 553.656 293.72 500.695 269.026 445.342 262.666 C 412.238 258.863 368.284 261.364 362.398 302.333 C 358.317 330.734 368.692 359.872 382.231 384.444 C 394.415 406.556 412.148 429.356 432.842 444.277 C 451.739 457.903 479.664 450.187 498.176 439.389 C 508.516 433.357 515.388 422.954 518.065 411.389 C 522.599 391.796 521.065 366.579 515.231 347.389 C 510.26 331.036 502.401 314.534 493.842 299.777 C 490.279 293.634 486.168 287.903 478.453 291.166 C 468.009 295.585 462.585 310.081 458.787 319.722 C 452.848 334.798 450.671 351.022 458.842 365.833 C 468.946 384.146 489.889 393.67 509.065 399.277 C 526.313 404.321 546.928 407.381 564.398 401.389 C 573.262 398.348 581.961 391.176 581.62 380.944 C 581.055 363.984 562.834 352.173 548.565 347.166 C 535.399 342.547 521.613 342.582 507.898 343.944 C 496.576 345.068 482.311 345.324 473.176 353.111 C 459.304 364.935 462.559 382.739 474.287 394.611 C 483.226 403.659 497.911 407.559 505.287 417.833 C 508.848 422.794 506.679 435.299 506.453 440.944 C 505.969 453.06 502.642 464.913 501.009 476.889 C 499.047 491.278 497.182 506.747 492.509 520.5 C 487.456 535.369 484.315 551.053 480.509 566.277 C 475.68 585.593 473.716 605.36 481.342 624.333 C 492.99 653.311 514.325 680.73 519.509 711.833" style="transform-box: fill-box; transform-origin: 50% 50%;" transform="matrix(0, -1, 1, 0, 0.000004, 0.000032)"/>
</svg>
