<?xml version="1.0" encoding="utf-8"?>
<svg viewBox="0 0 447 518" version="1.1" xmlns="http://www.w3.org/2000/svg">
  <g id="owl-outline" fill="none" stroke="#2d3f3f" stroke-width="2" opacity="1.00" stroke-linecap="round" stroke-linejoin="round" transform="matrix(1, 0, 0, 1, -1.186817, -1.407943)">
    <path d="M 56.62 1.45 C 60.03 3.34 63.47 5.19 66.76 7.28 C 85.68 19.1 105.06 30.17 124.03 41.89 C 149.02 29.19 177.17 24.12 204.96 22.85 C 240.12 21.88 276.18 24.14 309.28 37 C 313.04 38.28 316.34 40.64 320.1 41.9 C 339.54 29.2 359.55 17.26 379.69 5.66 C 382.09 4.1 384.58 2.59 387.42 1.98 C 387.38 15.64 387.59 29.31 387.33 42.97 C 386.52 56.11 383.1 69.14 376.85 80.76 C 373.86 86.41 370.35 92 365.28 96.02 C 376.96 117.07 381.88 141.16 383.39 165 C 383.29 170.62 384.47 176.18 384.33 181.8 C 384.28 206.89 384.58 231.98 384.37 257.07 C 384.41 262.4 383.41 267.67 383.45 273 C 382.95 297.15 376.86 321.06 366.09 342.66 C 357.4 360.32 346.61 376.96 334.25 392.27 C 323.63 405.89 311.82 418.52 300.22 431.29 C 293.23 438.68 285.76 445.59 278.71 452.92 C 283.19 457.23 287.6 461.62 292.25 465.75 C 298.88 471.78 305 478.34 311.83 484.15 C 318.5 490.49 325.01 496.99 331.91 503.09 C 336.65 508.05 342 512.5 346.13 518 L 132 518 C 111.37 482.44 93.89 444.9 81.61 405.62 C 80.57 403 78.81 396.37 78.11 394.23 C 70.53 368.78 66.16 342.49 63.39 316.11 C 63.04 310.77 62.55 303.04 62.16 299.93 C 60.86 291.37 61.89 282.67 60.72 274.09 C 60.07 243.39 60.4 212.68 60.56 181.98 C 60.4 175.96 61.68 170.02 61.43 163.99 C 62.41 146.94 64.87 129.78 70.97 113.71 C 73.39 107.54 75.74 101.22 79.56 95.75 C 63.21 79.86 57.77 56.09 57.35 34.01 C 56.27 23.18 56.99 12.3 56.62 1.45"/>
  </g>
  <g id="owl-head-details" transform="matrix(1, 0, 0, 1, -1.186817, -1.407943)">
    <path fill="none" stroke="#2d3f3f" stroke-width="2" opacity="1.00" d=" M 345.89 45.74 C 333.86 52.75 322.80 61.26 310.92 68.49 C 283.88 87.21 256.72 105.78 230.16 125.19 C 227.87 126.80 225.64 128.60 223.02 129.64 C 215.86 124.96 209.08 119.67 201.88 115.04 C 162.52 87.32 122.49 60.50 81.06 35.95 C 79.20 34.78 77.30 33.65 75.22 32.92 C 74.63 46.79 77.18 61.07 84.38 73.10 C 93.07 88.51 108.72 98.32 124.37 105.58 C 143.95 114.86 163.95 123.36 182.66 134.38 C 196.92 142.29 209.91 152.18 223.00 161.84 C 237.72 148.72 254.19 137.66 271.84 128.88 C 285.75 121.95 300.06 115.87 314.04 109.08 C 330.79 101.36 348.03 92.15 358.68 76.52 C 367.46 63.34 370.32 47.01 369.31 31.40 C 361.48 36.14 353.57 40.75 345.89 45.74"/>
    <path fill="none" stroke="#2d3f3f" stroke-width="2" opacity="1.00" d=" M 165.98 44.15 C 157.49 46.12 149.23 48.95 141.09 52.02 C 141.40 53.86 143.56 54.11 144.79 55.14 C 169.44 71.78 193.94 88.65 218.21 105.82 C 220.26 107.09 222.43 110.29 225.00 108.13 C 251.22 89.64 277.13 70.67 303.85 52.91 C 299.15 50.48 293.78 49.38 288.82 47.46 C 286.97 48.68 285.15 49.99 283.71 51.70 C 279.82 56.21 275.44 60.34 270.63 63.85 C 269.85 68.10 269.17 73.45 264.61 75.34 C 259.98 78.34 253.23 76.07 250.89 71.23 C 249.29 66.37 250.48 59.71 255.72 57.61 C 258.96 55.66 262.67 57.31 266.02 57.67 C 270.22 53.65 274.55 49.68 278.20 45.14 C 261.25 40.86 243.72 38.59 226.24 38.83 C 226.42 47.99 226.13 57.16 226.40 66.32 C 234.05 68.43 237.31 79.73 230.90 84.95 C 225.59 91.33 213.55 88.16 212.30 79.88 C 210.60 74.50 214.33 69.28 218.48 66.21 C 218.44 57.01 218.43 47.80 218.40 38.60 C 200.80 38.61 183.23 40.67 165.98 44.15"/>
  </g>
  <g id="owl-left-eye" transform="matrix(1, 0, 0, 1, -1.186817, -1.407943)">
    <path fill="none" stroke="#2d3f3f" stroke-width="2" opacity="1.00" d=" M 93.37 107.39 C 85.76 121.29 80.73 137.01 81.26 153.01 C 79.44 182.45 98.42 210.93 124.78 223.20 C 133.76 226.84 143.24 229.74 153.01 229.83 C 168.61 230.22 183.80 225.21 197.56 218.20 C 193.89 206.86 191.64 194.96 191.32 183.04 C 187.59 185.78 184.03 188.77 179.95 191.01 C 170.29 196.14 158.78 198.26 148.05 195.65 C 134.92 192.83 123.02 184.55 115.81 173.22 C 110.90 165.81 108.99 156.80 108.56 148.04 C 108.93 138.53 110.80 128.49 116.78 120.81 C 114.12 118.28 110.46 117.42 107.34 115.64 C 102.47 113.26 98.14 109.82 93.37 107.39"/>
  </g>
  <g id="owl-right-eye" transform="matrix(1, 0, 0, 1, -1.186817, -1.407943)">
    <path fill="none" stroke="#2d3f3f" stroke-width="2" opacity="1.00" d=" M 348.55 109.32 C 342.28 113.57 335.68 117.31 328.91 120.70 C 332.14 127.48 335.48 134.40 336.34 141.96 C 336.66 145.65 336.53 149.36 336.35 153.06 C 334.31 174.53 316.41 193.04 295.14 196.19 C 281.68 198.20 267.12 194.28 257.08 184.93 C 255.89 183.86 254.96 182.41 253.36 181.89 C 253.29 184.28 253.37 186.67 253.22 189.06 C 251.87 198.61 250.58 208.28 247.10 217.33 C 255.44 222.54 264.83 226.15 274.54 227.76 C 291.42 231.47 309.86 229.72 325.10 221.28 C 345.58 209.24 361.03 187.87 363.48 163.96 C 363.76 157.97 363.67 151.97 363.37 145.98 C 361.77 132.88 357.40 120.21 351.46 108.48 C 350.45 107.60 349.40 108.86 348.55 109.32"/>
    <path fill="none" stroke="#2d3f3f" stroke-width="2" opacity="1.00" d=" M 299.32 134.30 C 308.30 141.79 306.06 157.66 295.75 162.80 C 289.11 166.52 280.31 165.32 274.67 160.32 C 271.36 157.35 269.49 153.16 268.67 148.86 C 263.93 150.38 260.09 153.76 255.91 156.36 C 259.21 167.51 268.48 177.06 279.92 179.71 C 289.38 182.02 299.96 179.90 307.52 173.68 C 313.84 169.11 317.65 161.83 319.70 154.46 C 321.64 145.06 319.34 134.57 312.91 127.32 C 308.37 129.64 303.77 131.83 299.32 134.30"/>
    <path fill="none" stroke="#dbc043" stroke-width="2" opacity="1.00" d=" M 299.32 134.30 C 303.77 131.83 308.37 129.64 312.91 127.32 C 319.34 134.57 321.64 145.06 319.70 154.46 C 317.65 161.83 313.84 169.11 307.52 173.68 C 299.96 179.90 289.38 182.02 279.92 179.71 C 268.48 177.06 259.21 167.51 255.91 156.36 C 260.09 153.76 263.93 150.38 268.67 148.86 C 269.49 153.16 271.36 157.35 274.67 160.32 C 280.31 165.32 289.11 166.52 295.75 162.80 C 306.06 157.66 308.30 141.79 299.32 134.30 Z"/>
  </g>
  <g id="owl-left-pupil" transform="matrix(1, 0, 0, 1, -1.186817, -1.407943)">
    <path fill="none" stroke="#2d3f3f" stroke-width="2" opacity="1.00" d=" M 126.86 160.18 C 130.02 167.16 135.10 173.52 142.02 177.05 C 152.74 182.41 166.57 181.70 176.14 174.20 C 182.04 169.95 185.63 163.45 188.37 156.88 C 184.36 154.03 180.02 151.68 175.98 148.88 C 174.30 151.85 173.81 155.75 171.31 158.43 C 166.49 164.49 157.42 166.85 150.36 163.55 C 141.97 160.46 137.64 150.25 140.17 141.89 C 140.89 138.65 143.25 136.22 145.04 133.54 C 140.58 131.44 136.29 128.98 131.71 127.16 C 124.13 136.15 122.31 149.38 126.86 160.18"/>
    <path fill="none" stroke="#2d3f3f" stroke-width="2" opacity="1.00" d="M 205.95 172.91 C 205.82 184.86 207.41 196.9 210.9 208.39 C 213.22 216.01 217.4 222.9 221.85 229.44 L 222.77 229.87 C 236.17 213.93 238.66 191.95 238.72 171.84 C 234.7 175.1 230.65 178.32 226.73 181.7 C 225.31 182.72 223.49 184.67 221.65 183.35 C 218.71 181.28 215.89 179.03 212.81 177.17 C 210.48 175.81 208.96 174.86 206.46 173.81"/>
    <path fill="none" stroke="#dbc043" stroke-width="2" opacity="1.00" d=" M 126.86 160.18 C 122.31 149.38 124.13 136.15 131.71 127.16 C 136.29 128.98 140.58 131.44 145.04 133.54 C 143.25 136.22 140.89 138.65 140.17 141.89 C 137.64 150.25 141.97 160.46 150.36 163.55 C 157.42 166.85 166.49 164.49 171.31 158.43 C 173.81 155.75 174.30 151.85 175.98 148.88 C 180.02 151.68 184.36 154.03 188.37 156.88 C 185.63 163.45 182.04 169.95 176.14 174.20 C 166.57 181.70 152.74 182.41 142.02 177.05 C 135.10 173.52 130.02 167.16 126.86 160.18 Z"/>
  </g>
  <g id="owl-body-circuitry-left" transform="matrix(1, 0, 0, 1, -1.186817, -1.407943)">
    <path fill="none" stroke="#2d3f3f" stroke-width="2" opacity="1.00" d="M 77.489 202.923 C 75.699 229.313 77.12 255.66 77.86 282.03 C 78.58 287.37 78.24 292.75 78.37 298.12 C 81.08 297.15 82.41 294.35 84.48 292.51 C 93.99 283.11 103.14 273.3 113.05 264.35 C 116.76 267.54 120.29 270.94 124.07 274.06 C 123.65 275.17 123.35 276.41 122.41 277.23 C 114.49 285.35 106.34 293.24 98.41 301.36 C 92.68 307.19 86.2 312.58 81.31 319.07 C 81.03 330.56 84.2 341.79 84.72 353.23 C 85.06 353.23 85.74 353.23 86.08 353.23 C 87.12 350.15 89.85 348.23 91.95 345.93 C 111.95 325.92 131.25 305.23 151.43 285.4 C 152.23 284.69 153.05 284 153.88 283.34 C 158.03 286.48 162.12 289.78 165.41 293.83 L 165.36 295.08 C 149.96 310.76 134.27 326.18 118.89 341.89 C 109.12 351.95 98.69 361.41 89.4 371.91 C 91.91 383.4 94.97 394.78 98.87 405.9 C 102.45 403.62 104.92 400.02 107.94 397.11 C 121.34 383.45 134.93 369.98 147.97 355.99 C 163.1 340.93 177.34 325.02 192.71 310.19 C 186.93 297.51 178.02 286.53 168.02 276.93 C 156.9 265.5 143.73 256.39 131.09 246.75 C 124.98 241.7 117.13 239.58 110.55 235.28 C 99.38 228.93 90.02 219.8 82.49 209.47 C 80.76 207.3 79.59 205.736 77.613 203.613"/>
  </g>
  <g id="owl-body-circuitry-right" transform="matrix(1, 0, 0, 1, -1.186817, -1.407943)">
    <path fill="none" stroke="#2d3f3f" stroke-width="2" opacity="1.00" d=" M 350.54 222.63 C 339.19 233.21 325.30 241.46 310.02 244.68 C 307.98 245.05 305.86 245.19 303.98 246.12 C 302.90 252.65 304.48 259.37 304.25 265.99 C 304.27 285.00 304.23 304.01 304.27 323.02 C 304.72 326.13 302.54 328.52 300.64 330.66 C 284.56 347.97 267.26 364.12 251.37 381.61 C 249.87 382.99 250.13 385.12 249.94 386.96 C 249.81 410.16 250.17 433.37 249.75 456.57 C 250.42 454.46 252.53 453.44 254.02 451.98 C 258.04 448.31 262.46 445.03 266.09 440.97 C 266.94 426.60 265.83 412.03 266.60 397.64 C 272.80 390.69 280.00 384.73 286.61 378.20 C 285.17 374.02 284.18 368.74 287.33 365.09 C 291.73 357.92 304.16 360.11 306.29 368.16 C 310.07 376.24 301.31 385.21 293.05 383.70 C 287.95 390.16 281.82 395.66 276.46 401.88 C 276.50 411.63 276.59 421.37 276.42 431.12 L 277.83 430.34 C 282.65 425.17 287.80 420.32 292.40 414.96 C 304.85 401.43 317.40 387.91 328.18 372.98 C 329.04 371.83 329.25 370.37 329.21 368.97 C 329.13 339.70 329.25 310.41 329.15 281.14 C 327.87 279.98 326.24 279.25 325.02 278.04 C 321.44 273.54 321.19 266.45 324.99 262.01 C 329.05 257.04 337.34 256.82 342.01 261.04 C 348.31 266.43 346.44 279.06 337.90 281.04 C 337.91 304.37 337.91 327.71 337.90 351.04 C 337.85 353.52 338.74 356.05 338.02 358.49 C 338.28 358.41 338.80 358.25 339.07 358.17 C 342.66 353.40 344.55 347.64 347.86 342.69 C 357.25 322.96 365.30 302.00 366.46 279.96 C 366.27 274.62 367.53 269.36 367.33 264.02 C 367.27 243.53 367.66 223.02 367.13 202.55 C 362.26 209.71 357.27 217.04 350.54 222.63"/>
  </g>
  <g id="owl-chest-details" transform="matrix(1, 0, 0, 1, -1.186817, -1.407943)">
    <path fill="none" stroke="#2d3f3f" stroke-width="2" opacity="1.00" d="M 240.94 232.83 C 236.39 240.4 230.31 246.89 223.75 252.73 C 221.86 253.35 220.67 251.62 219.41 250.58 C 216.6 247.8 213.05 245.76 210.82 242.42 C 208.65 239.27 206.16 236.36 204.09 233.14 C 197.12 237.48 188.99 239.35 181.4 242.32 C 173.64 244.58 165.56 246.05 157.45 245.71 L 157.68 246.96 C 166.7 253.57 175.71 260.35 183.46 268.48 C 191.08 275.66 197.03 284.31 202.96 292.87 C 214.43 311.9 222.42 333.65 222.24 356.07 C 222.65 373.89 219.78 391.6 215.71 408.91 C 215.04 412.44 207.87 434.76 205.46 442.35 C 199.52 458.59 194.04 475 187.97 491.19 C 186.77 494.41 185.28 497.58 185.08 501.08 C 185.78 500.83 187.18 500.34 187.88 500.09 C 205.46 488.21 222.81 475.96 240.26 463.92 C 240.51 435.94 240.28 407.94 240.36 379.95 C 240.32 378.78 240.43 377.63 240.69 376.51 C 245.62 369.57 252.21 364.07 257.65 357.57 C 258.78 356.26 260.03 355.07 261.31 353.92 C 261.62 341.9 261.42 329.87 261.4 317.85 C 256.33 314.12 251.58 307.53 254.17 301.01 C 256.97 292.52 270.09 290.48 275.16 297.94 C 279.76 303.7 277.3 313.26 270.5 316.1 C 270 325.78 270.39 335.49 270.35 345.18 C 272.87 343.45 274.56 340.9 276.61 338.7 C 281.38 334.34 285.69 329.52 290.4 325.09 C 290.43 305.72 290.5 286.34 290.33 266.96 C 289.57 260.52 289.47 254.02 289.5 247.54 C 287.13 246.46 284.54 246.1 281.98 245.87 C 267.57 244.37 253.85 239.18 240.94 232.83"/>
  </g>
  <g id="owl-leg-details" transform="matrix(1, 0, 0, 1, -1.186817, -1.407943)">
    <path fill="none" stroke="#2d3f3f" stroke-width="2" opacity="1.00" d=" M 196.59 329.60 C 170.52 355.84 145.08 382.72 118.81 408.77 C 114.58 413.73 109.27 417.80 105.34 422.94 C 109.94 435.90 115.36 448.57 120.76 461.20 C 140.98 440.94 160.83 420.33 180.70 399.72 C 188.20 391.18 196.78 383.65 204.39 375.22 C 204.19 370.42 205.85 365.76 205.40 360.95 C 205.76 355.24 204.58 349.65 204.15 343.99 C 203.36 338.11 201.18 332.56 200.13 326.75 C 198.82 327.53 197.61 328.47 196.59 329.60"/>
  </g>
  <g id="owl-lower-body-circuitry" transform="matrix(1, 0, 0, 1, -1.186817, -1.407943)">
    <path fill="none" stroke="#2d3f3f" stroke-width="2" opacity="1.00" d=" M 129.53 475.06 C 128.68 476.52 129.51 478.22 130.13 479.61 C 133.65 486.58 137.07 493.61 140.45 500.65 C 147.58 501.96 154.81 500.44 161.97 501.17 C 163.82 500.99 167.02 501.65 167.45 499.13 C 178.50 468.18 190.27 437.44 199.32 405.83 L 197.29 406.53 C 174.24 428.90 152.38 452.49 129.53 475.06"/>
    <path fill="none" stroke="#2d3f3f" stroke-width="2" opacity="1.00" d=" M 251.13 475.10 C 240.05 483.42 229.36 492.24 217.96 500.13 C 220.86 501.28 224.02 500.66 227.06 500.80 C 252.03 500.92 277.01 500.77 301.99 500.77 C 303.38 500.76 304.75 500.59 306.11 500.26 C 296.93 490.99 286.65 482.92 277.50 473.61 C 273.91 469.80 269.52 466.87 265.97 463.03 C 260.87 466.87 256.32 471.37 251.13 475.10 Z"/>
    <ellipse style="stroke: rgb(45, 63, 63); paint-order: fill; fill: none; stroke-width: 2px;" cx="295.931" cy="372.114" rx="5.24" ry="4.431"/>
  </g>
  <ellipse style="stroke: rgb(45, 63, 63); paint-order: fill; fill: none; stroke-width: 2;" cx="264.814" cy="304.228" rx="5.24" ry="4.431"/>
  <ellipse style="stroke: rgb(45, 63, 63); paint-order: fill; fill: none; stroke-width: 2;" cx="332.765" cy="268.075" rx="5.24" ry="4.431"/>
  <ellipse style="stroke: rgb(45, 63, 63); paint-order: fill; fill: none; stroke-width: 2;" cx="221.387" cy="75.37" rx="5.24" ry="5.062"/>
  <ellipse style="stroke: rgb(45, 63, 63); paint-order: fill; fill: none; stroke-width: 2;" cx="259.274" cy="65.337" rx="5.24" ry="5.062"/>
</svg>
